<?xml version="1.0" encoding="UTF-8" standalone="no"?>
<!-- Created with Inkscape (http://www.inkscape.org/) -->
<svg
   xmlns:dc="http://purl.org/dc/elements/1.1/"
   xmlns:cc="http://creativecommons.org/ns#"
   xmlns:rdf="http://www.w3.org/1999/02/22-rdf-syntax-ns#"
   xmlns:svg="http://www.w3.org/2000/svg"
   xmlns="http://www.w3.org/2000/svg"
   xmlns:xlink="http://www.w3.org/1999/xlink"
   xmlns:sodipodi="http://sodipodi.sourceforge.net/DTD/sodipodi-0.dtd"
   xmlns:inkscape="http://www.inkscape.org/namespaces/inkscape"
   width="2501.4285"
   height="1558.5714"
   id="svg2"
   sodipodi:version="0.32"
   inkscape:version="0.46"
   sodipodi:docname="graph_crash.svg"
   inkscape:output_extension="org.inkscape.output.svg.inkscape"
   version="1.0">
  <defs
     id="defs4">
    <linearGradient
       id="linearGradient3292">
      <stop
         style="stop-color:#000000;stop-opacity:1;"
         offset="0"
         id="stop3294" />
      <stop
         style="stop-color:#f12320;stop-opacity:1;"
         offset="1"
         id="stop3296" />
    </linearGradient>
    <inkscape:perspective
       sodipodi:type="inkscape:persp3d"
       inkscape:vp_x="0 : 526.18109 : 1"
       inkscape:vp_y="0 : 1000 : 0"
       inkscape:vp_z="744.09448 : 526.18109 : 1"
       inkscape:persp3d-origin="372.04724 : 350.78739 : 1"
       id="perspective10" />
    <linearGradient
       inkscape:collect="always"
       xlink:href="#linearGradient3292"
       id="linearGradient3298"
       x1="8.5713758"
       y1="233.96935"
       x2="17.142883"
       y2="1043.7908"
       gradientUnits="userSpaceOnUse" />
  </defs>
  <sodipodi:namedview
     id="base"
     pagecolor="#ffffff"
     bordercolor="#666666"
     borderopacity="1.0"
     gridtolerance="10000"
     guidetolerance="10"
     objecttolerance="10"
     inkscape:pageopacity="0.0"
     inkscape:pageshadow="2"
     inkscape:zoom="0.35"
     inkscape:cx="1412.8441"
     inkscape:cy="748.57143"
     inkscape:document-units="px"
     inkscape:current-layer="layer1"
     showgrid="false"
     showborder="false"
     inkscape:window-width="1679"
     inkscape:window-height="973"
     inkscape:window-x="1"
     inkscape:window-y="51" />
  <metadata
     id="metadata7">
    <rdf:RDF>
      <cc:Work
         rdf:about="">
        <dc:format>image/svg+xml</dc:format>
        <dc:type
           rdf:resource="http://purl.org/dc/dcmitype/StillImage" />
      </cc:Work>
    </rdf:RDF>
  </metadata>
  <g
     inkscape:label="Layer 1"
     inkscape:groupmode="layer"
     id="layer1"
     transform="translate(1322.1428,341.20926)">
    <rect
       style="fill:#ffffff;fill-opacity:1;stroke:#1c1c1d;stroke-width:10;stroke-linecap:round;stroke-linejoin:round;stroke-miterlimit:4;stroke-dasharray:none;stroke-opacity:1"
       id="rect2383"
       width="2491.4285"
       height="1548.5714"
       x="-1317.1428"
       y="-336.20926"
       ry="8.3544474" />
    <rect
       style="fill:#ffffff;fill-opacity:1;stroke:#1c1c1d;stroke-width:9.8877039;stroke-linecap:round;stroke-linejoin:round;stroke-miterlimit:4;stroke-dasharray:none;stroke-opacity:1"
       id="rect2385"
       width="2177.2551"
       height="1242.9695"
       x="-1164.3419"
       y="-197.694"
       ry="8.1674452" />
    <g
       id="g3171">
      <path
         id="path3157"
         d="M -1167.1429,-61.923501 L 1015.7143,-61.923501"
         style="fill:none;fill-rule:evenodd;stroke:#000000;stroke-width:5;stroke-linecap:butt;stroke-linejoin:miter;stroke-miterlimit:4;stroke-dasharray:none;stroke-opacity:1" />
      <path
         id="path3159"
         d="M -1167.1429,256.17166 L 1015.7143,256.17166"
         style="fill:none;fill-rule:evenodd;stroke:#000000;stroke-width:5;stroke-linecap:butt;stroke-linejoin:miter;stroke-miterlimit:4;stroke-dasharray:none;stroke-opacity:1" />
      <path
         id="path3161"
         d="M -1167.1429,574.26695 L 1015.7143,574.26695"
         style="fill:none;fill-rule:evenodd;stroke:#000000;stroke-width:20;stroke-linecap:butt;stroke-linejoin:miter;stroke-miterlimit:4;stroke-dasharray:none;stroke-opacity:1" />
      <path
         id="path3163"
         d="M -1167.1429,733.31456 L 1015.7143,733.31456"
         style="fill:none;fill-rule:evenodd;stroke:#000000;stroke-width:5;stroke-linecap:butt;stroke-linejoin:miter;stroke-miterlimit:4;stroke-dasharray:none;stroke-opacity:1" />
      <path
         id="path3165"
         d="M -1167.1429,892.36218 L 1015.7143,892.36218"
         style="fill:none;fill-rule:evenodd;stroke:#000000;stroke-width:5;stroke-linecap:butt;stroke-linejoin:miter;stroke-miterlimit:4;stroke-dasharray:none;stroke-opacity:1" />
      <path
         id="path3167"
         d="M -1167.1429,415.21931 L 1015.7143,415.21931"
         style="fill:none;fill-rule:evenodd;stroke:#000000;stroke-width:5;stroke-linecap:butt;stroke-linejoin:miter;stroke-miterlimit:4;stroke-dasharray:none;stroke-opacity:1" />
      <path
         id="path3169"
         d="M -1167.1429,97.124081 L 1015.7143,97.124081"
         style="fill:none;fill-rule:evenodd;stroke:#000000;stroke-width:5;stroke-linecap:butt;stroke-linejoin:miter;stroke-miterlimit:4;stroke-dasharray:none;stroke-opacity:1" />
    </g>
    <path
       style="fill:none;fill-rule:evenodd;stroke:#000000;stroke-width:5;stroke-linecap:butt;stroke-linejoin:miter;stroke-miterlimit:4;stroke-dasharray:none;stroke-opacity:1"
       d="M -1001.7143,-202.49497 L -1001.7143,1046.0764"
       id="path3184" />
    <path
       style="fill:none;fill-rule:evenodd;stroke:#000000;stroke-width:5;stroke-linecap:butt;stroke-linejoin:miter;stroke-miterlimit:4;stroke-dasharray:none;stroke-opacity:1"
       d="M -797.58733,-202.49497 L -797.58733,1046.0764"
       id="path3186" />
    <path
       style="fill:none;fill-rule:evenodd;stroke:#000000;stroke-width:5;stroke-linecap:butt;stroke-linejoin:miter;stroke-miterlimit:4;stroke-dasharray:none;stroke-opacity:1"
       d="M -389.33335,-202.49496 L -389.33335,1046.0764"
       id="path3188" />
    <path
       style="fill:none;fill-rule:evenodd;stroke:#000000;stroke-width:5;stroke-linecap:butt;stroke-linejoin:miter;stroke-miterlimit:4;stroke-dasharray:none;stroke-opacity:1"
       d="M -185.20636,-202.49494 L -185.20636,1046.0764"
       id="path3190" />
    <path
       style="fill:none;fill-rule:evenodd;stroke:#000000;stroke-width:5;stroke-linecap:butt;stroke-linejoin:miter;stroke-miterlimit:4;stroke-dasharray:none;stroke-opacity:1"
       d="M 18.92064,-202.49496 L 18.92064,1046.0764"
       id="path3192" />
    <path
       style="fill:none;fill-rule:evenodd;stroke:#000000;stroke-width:5;stroke-linecap:butt;stroke-linejoin:miter;stroke-miterlimit:4;stroke-dasharray:none;stroke-opacity:1"
       d="M 223.04763,-202.49497 L 223.04763,1046.0764"
       id="path3194" />
    <path
       style="fill:none;fill-rule:evenodd;stroke:#000000;stroke-width:5;stroke-linecap:butt;stroke-linejoin:miter;stroke-miterlimit:4;stroke-dasharray:none;stroke-opacity:1"
       d="M 427.17463,-202.49496 L 427.17463,1046.0764"
       id="path3196" />
    <path
       style="fill:none;fill-rule:evenodd;stroke:#000000;stroke-width:5;stroke-linecap:butt;stroke-linejoin:miter;stroke-miterlimit:4;stroke-dasharray:none;stroke-opacity:1"
       d="M 835.42862,-202.49497 L 835.42862,1046.0764"
       id="path3198" />
    <path
       style="fill:none;fill-rule:evenodd;stroke:#000000;stroke-width:5;stroke-linecap:butt;stroke-linejoin:miter;stroke-miterlimit:4;stroke-dasharray:none;stroke-opacity:1"
       d="M 631.30164,-202.49497 L 631.30164,1046.0764"
       id="path3200" />
    <path
       style="fill:none;fill-rule:evenodd;stroke:#000000;stroke-width:5;stroke-linecap:butt;stroke-linejoin:miter;stroke-miterlimit:4;stroke-dasharray:none;stroke-opacity:1"
       d="M -593.46034,-202.49499 L -593.46034,1046.0764"
       id="path3202" />
    <path
       style="font-size:72px;font-style:normal;font-variant:normal;font-weight:normal;font-stretch:normal;fill:#000000;fill-opacity:1;stroke:none;stroke-width:1px;stroke-linecap:butt;stroke-linejoin:miter;stroke-opacity:1;font-family:Trajan Pro;-inkscape-font-specification:Trajan Pro"
       d="M -1279.218,-221.41955 C -1279.182,-226.92755 -1279.038,-230.49155 -1279.038,-230.77955 C -1279.038,-231.13955 -1279.146,-231.53555 -1279.434,-231.53555 C -1279.686,-231.53555 -1279.974,-231.31955 -1280.298,-231.10355 L -1287.246,-226.45955 C -1287.39,-226.35155 -1287.498,-226.20755 -1287.498,-226.09955 C -1287.498,-225.95555 -1287.354,-225.77555 -1287.246,-225.77555 C -1287.102,-225.77555 -1286.994,-225.81155 -1286.814,-225.91955 C -1285.914,-226.35155 -1283.394,-227.64755 -1282.71,-227.64755 C -1282.134,-227.64755 -1282.062,-227.25155 -1282.062,-226.53155 C -1282.062,-224.55156 -1282.062,-223.00355 -1282.062,-221.05955 L -1282.062,-214.75955 C -1282.062,-211.15956 -1282.062,-208.06355 -1282.17,-206.47955 C -1282.242,-205.36355 -1282.494,-204.82355 -1283.682,-204.60755 C -1284.366,-204.46355 -1286.13,-204.35555 -1286.562,-204.35555 C -1286.706,-204.35555 -1286.85,-204.21155 -1286.85,-204.06755 C -1286.85,-203.88755 -1286.634,-203.81555 -1286.238,-203.81555 C -1283.934,-203.81555 -1280.91,-203.92355 -1280.73,-203.92355 C -1280.55,-203.92355 -1278.246,-203.81555 -1275.546,-203.81555 C -1275.114,-203.81555 -1274.934,-203.88755 -1274.934,-204.06755 C -1274.934,-204.21155 -1275.114,-204.35555 -1275.258,-204.35555 C -1275.582,-204.35555 -1277.094,-204.46355 -1277.634,-204.57155 C -1278.786,-204.82355 -1278.93,-205.36355 -1279.074,-206.47955 C -1279.254,-208.06355 -1279.29,-211.15956 -1279.254,-214.75955 L -1279.218,-221.41955 M -1269.4508,-216.59555 C -1269.4508,-210.15156 -1266.6068,-203.31155 -1260.9908,-203.31155 C -1255.1228,-203.31155 -1251.9188,-209.97156 -1251.9188,-218.25155 C -1251.9188,-222.96755 -1253.8268,-231.53555 -1260.4148,-231.53555 C -1266.1748,-231.53555 -1269.4508,-225.09154 -1269.4508,-216.59555 M -1266.5348,-218.07155 C -1266.5348,-225.37955 -1264.4828,-230.20355 -1261.1348,-230.20355 C -1257.0668,-230.20355 -1254.8348,-223.54355 -1254.8348,-216.70355 C -1254.8348,-209.61156 -1257.0308,-204.64355 -1260.2708,-204.64355 C -1264.6988,-204.64355 -1266.5348,-211.77156 -1266.5348,-218.07155 M -1248.9195,-216.59555 C -1248.9195,-210.15156 -1246.0755,-203.31155 -1240.4595,-203.31155 C -1234.5915,-203.31155 -1231.3875,-209.97156 -1231.3875,-218.25155 C -1231.3875,-222.96755 -1233.2955,-231.53555 -1239.8835,-231.53555 C -1245.6435,-231.53555 -1248.9195,-225.09154 -1248.9195,-216.59555 M -1246.0035,-218.07155 C -1246.0035,-225.37955 -1243.9515,-230.20355 -1240.6035,-230.20355 C -1236.5355,-230.20355 -1234.3035,-223.54355 -1234.3035,-216.70355 C -1234.3035,-209.61156 -1236.4995,-204.64355 -1239.7395,-204.64355 C -1244.1675,-204.64355 -1246.0035,-211.77156 -1246.0035,-218.07155 M -1228.3883,-216.59555 C -1228.3883,-210.15156 -1225.5443,-203.31155 -1219.9283,-203.31155 C -1214.0603,-203.31155 -1210.8563,-209.97156 -1210.8563,-218.25155 C -1210.8563,-222.96755 -1212.7643,-231.53555 -1219.3523,-231.53555 C -1225.1123,-231.53555 -1228.3883,-225.09154 -1228.3883,-216.59555 M -1225.4723,-218.07155 C -1225.4723,-225.37955 -1223.4203,-230.20355 -1220.0723,-230.20355 C -1216.0043,-230.20355 -1213.7723,-223.54355 -1213.7723,-216.70355 C -1213.7723,-209.61156 -1215.9683,-204.64355 -1219.2083,-204.64355 C -1223.6363,-204.64355 -1225.4723,-211.77156 -1225.4723,-218.07155 M -1207.857,-216.59555 C -1207.857,-210.15156 -1205.013,-203.31155 -1199.397,-203.31155 C -1193.529,-203.31155 -1190.325,-209.97156 -1190.325,-218.25155 C -1190.325,-222.96755 -1192.233,-231.53555 -1198.821,-231.53555 C -1204.581,-231.53555 -1207.857,-225.09154 -1207.857,-216.59555 M -1204.941,-218.07155 C -1204.941,-225.37955 -1202.889,-230.20355 -1199.541,-230.20355 C -1195.473,-230.20355 -1193.241,-223.54355 -1193.241,-216.70355 C -1193.241,-209.61156 -1195.437,-204.64355 -1198.677,-204.64355 C -1203.105,-204.64355 -1204.941,-211.77156 -1204.941,-218.07155"
       id="text3204" />
    <path
       style="font-size:36px;font-style:normal;font-variant:normal;font-weight:normal;font-stretch:normal;fill:#000000;fill-opacity:1;stroke:none;stroke-width:1px;stroke-linecap:butt;stroke-linejoin:miter;stroke-opacity:1;font-family:Trajan Pro;-inkscape-font-specification:Trajan Pro"
       d="M -1275.0003,-57.081229 C -1275.0003,-52.725233 -1271.3283,-50.097229 -1266.8283,-50.097229 C -1261.6803,-50.097229 -1258.2603,-53.841233 -1258.2603,-58.017229 C -1258.2603,-62.445224 -1262.1483,-64.64123 -1264.5243,-65.865229 C -1262.5083,-66.873228 -1259.3763,-69.033232 -1259.3763,-72.813229 C -1259.3763,-76.341225 -1262.2203,-78.321229 -1265.9643,-78.321229 C -1271.2203,-78.321229 -1273.6323,-74.613226 -1273.6323,-71.877229 C -1273.6323,-68.673232 -1271.4003,-66.765227 -1268.5923,-65.109229 C -1271.8683,-63.81323 -1275.0003,-61.113224 -1275.0003,-57.081229 M -1266.5403,-51.465229 C -1269.8883,-51.465229 -1272.2283,-54.237232 -1272.2283,-57.441229 C -1272.2283,-61.041225 -1270.0323,-63.23723 -1267.3683,-64.533229 C -1264.1283,-62.84123 -1261.0323,-61.113225 -1261.0323,-57.189229 C -1261.0323,-53.985232 -1263.2283,-51.465229 -1266.5403,-51.465229 M -1266.3963,-77.097229 C -1263.6243,-77.097229 -1261.8963,-75.117226 -1261.8963,-72.381229 C -1261.8963,-68.709232 -1264.3443,-67.269228 -1265.7483,-66.441229 C -1268.7003,-68.025227 -1271.0763,-69.537232 -1271.0763,-72.561229 C -1271.0763,-74.541227 -1269.6363,-77.097229 -1266.3963,-77.097229 M -1254.8651,-63.381229 C -1254.8651,-56.937235 -1252.0211,-50.097229 -1246.4051,-50.097229 C -1240.5371,-50.097229 -1237.3331,-56.757237 -1237.3331,-65.037229 C -1237.3331,-69.753224 -1239.2411,-78.321229 -1245.8291,-78.321229 C -1251.5891,-78.321229 -1254.8651,-71.87722 -1254.8651,-63.381229 M -1251.9491,-64.857229 C -1251.9491,-72.165221 -1249.8971,-76.989229 -1246.5491,-76.989229 C -1242.4811,-76.989229 -1240.2491,-70.329222 -1240.2491,-63.489229 C -1240.2491,-56.397236 -1242.4451,-51.429229 -1245.6851,-51.429229 C -1250.1131,-51.429229 -1251.9491,-58.557235 -1251.9491,-64.857229 M -1234.3338,-63.381229 C -1234.3338,-56.937235 -1231.4898,-50.097229 -1225.8738,-50.097229 C -1220.0058,-50.097229 -1216.8018,-56.757237 -1216.8018,-65.037229 C -1216.8018,-69.753224 -1218.7098,-78.321229 -1225.2978,-78.321229 C -1231.0578,-78.321229 -1234.3338,-71.87722 -1234.3338,-63.381229 M -1231.4178,-64.857229 C -1231.4178,-72.165221 -1229.3658,-76.989229 -1226.0178,-76.989229 C -1221.9498,-76.989229 -1219.7178,-70.329222 -1219.7178,-63.489229 C -1219.7178,-56.397236 -1221.9138,-51.429229 -1225.1538,-51.429229 C -1229.5818,-51.429229 -1231.4178,-58.557235 -1231.4178,-64.857229 M -1213.8026,-63.381229 C -1213.8026,-56.937235 -1210.9586,-50.097229 -1205.3426,-50.097229 C -1199.4746,-50.097229 -1196.2706,-56.757237 -1196.2706,-65.037229 C -1196.2706,-69.753224 -1198.1786,-78.321229 -1204.7666,-78.321229 C -1210.5266,-78.321229 -1213.8026,-71.87722 -1213.8026,-63.381229 M -1210.8866,-64.857229 C -1210.8866,-72.165221 -1208.8346,-76.989229 -1205.4866,-76.989229 C -1201.4186,-76.989229 -1199.1866,-70.329222 -1199.1866,-63.489229 C -1199.1866,-56.397236 -1201.3826,-51.429229 -1204.6226,-51.429229 C -1209.0506,-51.429229 -1210.8866,-58.557235 -1210.8866,-64.857229"
       id="text3208" />
    <path
       style="font-size:36px;font-style:normal;font-variant:normal;font-weight:normal;font-stretch:normal;fill:#000000;fill-opacity:1;stroke:none;stroke-width:1px;stroke-linecap:butt;stroke-linejoin:miter;stroke-opacity:1;font-family:Trajan Pro;-inkscape-font-specification:Trajan Pro"
       d="M -1259.8983,95.485043 C -1259.8983,99.445039 -1262.1663,101.74904 -1265.0463,101.74904 C -1269.1863,101.74904 -1271.0583,96.961039 -1271.0583,92.749043 C -1271.0583,84.217052 -1265.9823,78.42104 -1261.3743,75.865043 C -1261.0143,75.649043 -1260.6903,75.505043 -1260.6903,75.217043 C -1260.6903,75.001043 -1260.8343,74.893043 -1260.9783,74.893043 C -1261.1223,74.893043 -1261.4103,75.001043 -1261.7343,75.145043 C -1268.7183,78.16904 -1274.1903,85.76505 -1274.1903,92.749043 C -1274.1903,99.301036 -1270.7703,103.11704 -1265.7303,103.11704 C -1263.0663,103.11704 -1261.1943,102.32504 -1259.5023,100.70504 C -1257.9183,99.157045 -1256.9103,96.70904 -1256.9103,93.865043 C -1256.9103,90.661046 -1259.1424,86.557043 -1264.1463,86.557043 C -1266.1623,86.557043 -1267.6023,87.313044 -1268.3223,87.817043 C -1268.5383,87.961043 -1268.6463,88.069043 -1268.6463,88.249043 C -1268.6463,88.429043 -1268.6103,88.537043 -1268.5023,88.537043 C -1268.3943,88.537043 -1268.1423,88.429043 -1268.0343,88.393043 C -1267.2063,87.997043 -1266.2703,87.925043 -1265.3343,87.925043 C -1263.1383,87.925043 -1259.8983,90.481048 -1259.8983,95.485043 M -1253.9111,89.833043 C -1253.9111,96.277037 -1251.0671,103.11704 -1245.4511,103.11704 C -1239.5831,103.11704 -1236.3791,96.457035 -1236.3791,88.177043 C -1236.3791,83.461048 -1238.2871,74.893043 -1244.8751,74.893043 C -1250.6351,74.893043 -1253.9111,81.337052 -1253.9111,89.833043 M -1250.9951,88.357043 C -1250.9951,81.04905 -1248.9431,76.225043 -1245.5951,76.225043 C -1241.5271,76.225043 -1239.2951,82.88505 -1239.2951,89.725043 C -1239.2951,96.817036 -1241.4911,101.78504 -1244.7311,101.78504 C -1249.1591,101.78504 -1250.9951,94.657037 -1250.9951,88.357043 M -1233.3798,89.833043 C -1233.3798,96.277037 -1230.5358,103.11704 -1224.9198,103.11704 C -1219.0519,103.11704 -1215.8478,96.457035 -1215.8478,88.177043 C -1215.8478,83.461048 -1217.7559,74.893043 -1224.3438,74.893043 C -1230.1038,74.893043 -1233.3798,81.337052 -1233.3798,89.833043 M -1230.4638,88.357043 C -1230.4638,81.04905 -1228.4118,76.225043 -1225.0638,76.225043 C -1220.9958,76.225043 -1218.7638,82.88505 -1218.7638,89.725043 C -1218.7638,96.817036 -1220.9598,101.78504 -1224.1998,101.78504 C -1228.6278,101.78504 -1230.4638,94.657037 -1230.4638,88.357043 M -1212.8486,89.833043 C -1212.8486,96.277037 -1210.0046,103.11704 -1204.3886,103.11704 C -1198.5206,103.11704 -1195.3166,96.457035 -1195.3166,88.177043 C -1195.3166,83.461048 -1197.2246,74.893043 -1203.8126,74.893043 C -1209.5726,74.893043 -1212.8486,81.337052 -1212.8486,89.833043 M -1209.9326,88.357043 C -1209.9326,81.04905 -1207.8806,76.225043 -1204.5326,76.225043 C -1200.4646,76.225043 -1198.2326,82.88505 -1198.2326,89.725043 C -1198.2326,96.817036 -1200.4286,101.78504 -1203.6686,101.78504 C -1208.0966,101.78504 -1209.9326,94.657037 -1209.9326,88.357043"
       id="text3212" />
    <path
       style="font-size:36px;font-style:normal;font-variant:normal;font-weight:normal;font-stretch:normal;fill:#000000;fill-opacity:1;stroke:none;stroke-width:1px;stroke-linecap:butt;stroke-linejoin:miter;stroke-opacity:1;font-family:Trajan Pro;-inkscape-font-specification:Trajan Pro"
       d="M -1264.3264,234.1193 C -1264.3264,232.1393 -1264.2904,229.2593 -1264.2904,228.7193 C -1264.2904,228.3593 -1264.3984,228.1073 -1264.6504,228.1073 C -1264.9024,228.1073 -1265.1184,228.3593 -1265.4064,228.7553 C -1266.5584,230.3393 -1278.2584,246.1793 -1278.4744,246.4313 C -1278.6184,246.6113 -1278.7984,246.8993 -1278.7984,247.1873 C -1278.7984,247.5113 -1278.4744,247.6193 -1278.0424,247.6193 L -1267.0624,247.6193 C -1267.0624,248.8073 -1266.9904,251.5793 -1267.1344,253.1633 C -1267.2424,254.2433 -1267.4944,254.9993 -1268.6824,255.1793 C -1269.2584,255.2513 -1270.0504,255.2873 -1270.3744,255.2873 C -1270.5544,255.2873 -1270.6624,255.4313 -1270.6624,255.5753 C -1270.6624,255.7553 -1270.4824,255.8273 -1270.0864,255.8273 C -1268.1064,255.8273 -1266.1624,255.7193 -1265.9104,255.7193 C -1265.6584,255.7193 -1263.3544,255.8273 -1261.3744,255.8273 C -1260.9784,255.8273 -1260.7984,255.7553 -1260.7984,255.5753 C -1260.7984,255.4313 -1260.9424,255.2873 -1261.1224,255.2873 C -1261.4824,255.2873 -1262.2024,255.2513 -1262.7064,255.1433 C -1263.8584,254.8553 -1264.1464,254.2433 -1264.2544,253.1633 C -1264.3984,251.5793 -1264.3264,248.8073 -1264.3264,247.6193 L -1261.0144,247.6193 C -1260.5824,247.6193 -1260.4384,247.5113 -1260.2584,247.1513 C -1260.1144,246.7193 -1259.9344,245.8913 -1259.9344,245.7113 C -1259.9344,245.5313 -1259.9344,245.2793 -1260.1144,245.2793 C -1260.2584,245.2793 -1260.6184,245.6753 -1261.5904,245.6753 L -1264.3264,245.6753 L -1264.3264,234.1193 M -1267.0624,245.6753 L -1276.2784,245.6753 C -1275.5944,244.7753 -1267.6744,233.8673 -1267.1344,232.9313 L -1267.0624,232.9313 L -1267.0624,245.6753 M -1257.2591,243.0473 C -1257.2591,249.49129 -1254.4151,256.3313 -1248.7991,256.3313 C -1242.9311,256.3313 -1239.7271,249.67129 -1239.7271,241.3913 C -1239.7271,236.6753 -1241.6351,228.1073 -1248.2231,228.1073 C -1253.9831,228.1073 -1257.2591,234.55131 -1257.2591,243.0473 M -1254.3431,241.5713 C -1254.3431,234.26331 -1252.2911,229.4393 -1248.9431,229.4393 C -1244.8751,229.4393 -1242.6431,236.09931 -1242.6431,242.9393 C -1242.6431,250.03129 -1244.8391,254.9993 -1248.0791,254.9993 C -1252.5071,254.9993 -1254.3431,247.87129 -1254.3431,241.5713 M -1236.7279,243.0473 C -1236.7279,249.49129 -1233.8839,256.3313 -1228.2679,256.3313 C -1222.3999,256.3313 -1219.1959,249.67129 -1219.1959,241.3913 C -1219.1959,236.6753 -1221.1039,228.1073 -1227.6919,228.1073 C -1233.4519,228.1073 -1236.7279,234.55131 -1236.7279,243.0473 M -1233.8119,241.5713 C -1233.8119,234.26331 -1231.7599,229.4393 -1228.4119,229.4393 C -1224.3439,229.4393 -1222.1119,236.09931 -1222.1119,242.9393 C -1222.1119,250.03129 -1224.3079,254.9993 -1227.5479,254.9993 C -1231.9759,254.9993 -1233.8119,247.87129 -1233.8119,241.5713 M -1216.1966,243.0473 C -1216.1966,249.49129 -1213.3526,256.3313 -1207.7366,256.3313 C -1201.8686,256.3313 -1198.6646,249.67129 -1198.6646,241.3913 C -1198.6646,236.6753 -1200.5726,228.1073 -1207.1606,228.1073 C -1212.9206,228.1073 -1216.1966,234.55131 -1216.1966,243.0473 M -1213.2806,241.5713 C -1213.2806,234.26331 -1211.2286,229.4393 -1207.8806,229.4393 C -1203.8126,229.4393 -1201.5806,236.09931 -1201.5806,242.9393 C -1201.5806,250.03129 -1203.7766,254.9993 -1207.0166,254.9993 C -1211.4446,254.9993 -1213.2806,247.87129 -1213.2806,241.5713"
       id="text3216" />
    <path
       style="font-size:36px;font-style:normal;font-variant:normal;font-weight:normal;font-stretch:normal;fill:#000000;fill-opacity:1;stroke:none;stroke-width:1px;stroke-linecap:butt;stroke-linejoin:miter;stroke-opacity:1;font-family:Trajan Pro;-inkscape-font-specification:Trajan Pro"
       d="M -1264.2904,408.93359 C -1262.7784,408.93359 -1262.2384,408.82559 -1261.9504,407.85359 C -1261.5904,406.62959 -1260.8704,403.82159 -1260.8704,403.13759 C -1260.8704,402.92159 -1260.9064,402.59759 -1261.0864,402.59759 C -1261.3024,402.59759 -1261.4104,402.74159 -1261.5184,403.13759 C -1261.9504,405.04559 -1263.1024,406.34159 -1265.7304,406.59359 C -1267.0264,406.73759 -1271.2744,406.77359 -1271.8864,406.77359 L -1274.5144,406.77359 C -1274.6944,406.77359 -1274.7664,406.66559 -1274.5864,406.52159 C -1270.1224,402.7056 -1262.0584,396.04559 -1262.0584,388.59359 C -1262.0584,384.7776 -1264.7584,381.32159 -1270.1944,381.32159 C -1273.1104,381.32159 -1275.1984,381.96959 -1276.5304,382.58159 C -1276.8544,382.79759 -1276.8904,382.90559 -1276.8904,383.12159 C -1276.8904,384.23759 -1276.7104,387.22559 -1276.6744,387.54959 C -1276.6384,387.87359 -1276.5304,388.01759 -1276.3864,388.01759 C -1276.2064,388.01759 -1276.0624,387.80159 -1276.0624,387.47759 C -1276.0624,386.0736 -1275.6664,384.81359 -1274.8024,383.98559 C -1273.7584,383.01359 -1272.6784,382.61759 -1270.9504,382.61759 C -1268.5384,382.61759 -1265.2264,384.1296 -1265.2264,389.27759 C -1265.2264,396.18959 -1270.5904,401.1576 -1277.7904,407.56559 C -1278.0784,407.81759 -1278.4384,408.14159 -1278.4384,408.42959 C -1278.4384,408.71759 -1278.1864,408.93359 -1277.9344,408.93359 L -1264.2904,408.93359 M -1257.6551,396.26159 C -1257.6551,402.70559 -1254.8111,409.54559 -1249.1951,409.54559 C -1243.3271,409.54559 -1240.1231,402.88559 -1240.1231,394.60559 C -1240.1231,389.8896 -1242.0311,381.32159 -1248.6191,381.32159 C -1254.3791,381.32159 -1257.6551,387.7656 -1257.6551,396.26159 M -1254.7391,394.78559 C -1254.7391,387.4776 -1252.6871,382.65359 -1249.3391,382.65359 C -1245.2711,382.65359 -1243.0391,389.3136 -1243.0391,396.15359 C -1243.0391,403.24559 -1245.2351,408.21359 -1248.4751,408.21359 C -1252.9031,408.21359 -1254.7391,401.08559 -1254.7391,394.78559 M -1237.1239,396.26159 C -1237.1239,402.70559 -1234.2799,409.54559 -1228.6639,409.54559 C -1222.7959,409.54559 -1219.5919,402.88559 -1219.5919,394.60559 C -1219.5919,389.8896 -1221.4999,381.32159 -1228.0879,381.32159 C -1233.8479,381.32159 -1237.1239,387.7656 -1237.1239,396.26159 M -1234.2079,394.78559 C -1234.2079,387.4776 -1232.1559,382.65359 -1228.8079,382.65359 C -1224.7399,382.65359 -1222.5079,389.3136 -1222.5079,396.15359 C -1222.5079,403.24559 -1224.7039,408.21359 -1227.9439,408.21359 C -1232.3719,408.21359 -1234.2079,401.08559 -1234.2079,394.78559 M -1216.5926,396.26159 C -1216.5926,402.70559 -1213.7486,409.54559 -1208.1326,409.54559 C -1202.2646,409.54559 -1199.0606,402.88559 -1199.0606,394.60559 C -1199.0606,389.8896 -1200.9686,381.32159 -1207.5566,381.32159 C -1213.3166,381.32159 -1216.5926,387.7656 -1216.5926,396.26159 M -1213.6766,394.78559 C -1213.6766,387.4776 -1211.6246,382.65359 -1208.2766,382.65359 C -1204.2086,382.65359 -1201.9766,389.3136 -1201.9766,396.15359 C -1201.9766,403.24559 -1204.1726,408.21359 -1207.4126,408.21359 C -1211.8406,408.21359 -1213.6766,401.08559 -1213.6766,394.78559"
       id="text3220" />
    <path
       style="font-size:36px;font-style:normal;font-variant:normal;font-weight:normal;font-stretch:normal;fill:#000000;fill-opacity:1;stroke:none;stroke-width:1px;stroke-linecap:butt;stroke-linejoin:miter;stroke-opacity:1;font-family:Trajan Pro;-inkscape-font-specification:Trajan Pro"
       d="M -1243.5734,549.47589 C -1243.5734,555.91988 -1240.7294,562.75989 -1235.1134,562.75989 C -1229.2455,562.75989 -1226.0414,556.09988 -1226.0414,547.81989 C -1226.0414,543.10389 -1227.9495,534.53589 -1234.5374,534.53589 C -1240.2974,534.53589 -1243.5734,540.9799 -1243.5734,549.47589 M -1240.6574,547.99989 C -1240.6574,540.6919 -1238.6054,535.86789 -1235.2574,535.86789 C -1231.1895,535.86789 -1228.9574,542.5279 -1228.9574,549.36789 C -1228.9574,556.45988 -1231.1535,561.42789 -1234.3934,561.42789 C -1238.8214,561.42789 -1240.6574,554.29988 -1240.6574,547.99989"
       id="text3224" />
    <path
       style="font-size:36px;font-style:normal;font-variant:normal;font-weight:normal;font-stretch:normal;fill:#000000;fill-opacity:1;stroke:none;stroke-width:1px;stroke-linecap:butt;stroke-linejoin:miter;stroke-opacity:1;font-family:Trajan Pro;-inkscape-font-specification:Trajan Pro"
       d="M -1284.1376,704.20218 C -1284.7136,704.20218 -1284.8576,704.23818 -1284.9296,704.49018 L -1285.4696,706.50618 C -1285.5416,706.83018 -1285.5056,707.04618 -1285.2896,707.04618 C -1285.1096,707.04618 -1284.4976,706.68618 -1283.8136,706.50618 C -1282.5896,706.18218 -1276.2176,705.31818 -1275.2456,705.17418 C -1274.6696,705.06618 -1273.9856,704.99418 -1273.9856,704.56218 C -1273.9856,704.27418 -1274.4536,704.20218 -1275.0656,704.20218 L -1284.1376,704.20218 M -1257.2951,715.36218 C -1255.7831,715.36218 -1255.2431,715.25418 -1254.9551,714.28218 C -1254.5951,713.05818 -1253.8751,710.25018 -1253.8751,709.56618 C -1253.8751,709.35018 -1253.9111,709.02618 -1254.0911,709.02618 C -1254.3071,709.02618 -1254.4151,709.17018 -1254.5231,709.56618 C -1254.9551,711.47418 -1256.1071,712.77018 -1258.7351,713.02218 C -1260.0311,713.16618 -1264.2791,713.20218 -1264.8911,713.20218 L -1267.5191,713.20218 C -1267.6991,713.20218 -1267.7711,713.09418 -1267.5911,712.95018 C -1263.1271,709.13419 -1255.0631,702.47418 -1255.0631,695.02218 C -1255.0631,691.20619 -1257.7631,687.75018 -1263.1991,687.75018 C -1266.1151,687.75018 -1268.2031,688.39818 -1269.5351,689.01018 C -1269.8591,689.22618 -1269.8951,689.33418 -1269.8951,689.55018 C -1269.8951,690.66618 -1269.7151,693.65418 -1269.6791,693.97818 C -1269.6431,694.30218 -1269.5351,694.44618 -1269.3911,694.44618 C -1269.2111,694.44618 -1269.0671,694.23018 -1269.0671,693.90618 C -1269.0671,692.50218 -1268.6711,691.24218 -1267.8071,690.41418 C -1266.7631,689.44218 -1265.6831,689.04618 -1263.9551,689.04618 C -1261.5431,689.04618 -1258.2311,690.55819 -1258.2311,695.70618 C -1258.2311,702.61818 -1263.5951,707.58619 -1270.7951,713.99418 C -1271.0831,714.24618 -1271.4431,714.57018 -1271.4431,714.85818 C -1271.4431,715.14618 -1271.1911,715.36218 -1270.9391,715.36218 L -1257.2951,715.36218 M -1250.6599,702.69018 C -1250.6599,709.13418 -1247.8159,715.97418 -1242.1999,715.97418 C -1236.3319,715.97418 -1233.1279,709.31417 -1233.1279,701.03418 C -1233.1279,696.31819 -1235.0359,687.75018 -1241.6239,687.75018 C -1247.3839,687.75018 -1250.6599,694.19419 -1250.6599,702.69018 M -1247.7439,701.21418 C -1247.7439,693.90619 -1245.6919,689.08218 -1242.3439,689.08218 C -1238.2759,689.08218 -1236.0439,695.74219 -1236.0439,702.58218 C -1236.0439,709.67418 -1238.2399,714.64218 -1241.4799,714.64218 C -1245.9079,714.64218 -1247.7439,707.51418 -1247.7439,701.21418 M -1230.1286,702.69018 C -1230.1286,709.13418 -1227.2846,715.97418 -1221.6686,715.97418 C -1215.8006,715.97418 -1212.5966,709.31417 -1212.5966,701.03418 C -1212.5966,696.31819 -1214.5046,687.75018 -1221.0926,687.75018 C -1226.8526,687.75018 -1230.1286,694.19419 -1230.1286,702.69018 M -1227.2126,701.21418 C -1227.2126,693.90619 -1225.1606,689.08218 -1221.8126,689.08218 C -1217.7446,689.08218 -1215.5126,695.74219 -1215.5126,702.58218 C -1215.5126,709.67418 -1217.7086,714.64218 -1220.9486,714.64218 C -1225.3766,714.64218 -1227.2126,707.51418 -1227.2126,701.21418 M -1209.5974,702.69018 C -1209.5974,709.13418 -1206.7534,715.97418 -1201.1374,715.97418 C -1195.2694,715.97418 -1192.0654,709.31417 -1192.0654,701.03418 C -1192.0654,696.31819 -1193.9734,687.75018 -1200.5614,687.75018 C -1206.3214,687.75018 -1209.5974,694.19419 -1209.5974,702.69018 M -1206.6814,701.21418 C -1206.6814,693.90619 -1204.6294,689.08218 -1201.2814,689.08218 C -1197.2134,689.08218 -1194.9814,695.74219 -1194.9814,702.58218 C -1194.9814,709.67418 -1197.1774,714.64218 -1200.4174,714.64218 C -1204.8454,714.64218 -1206.6814,707.51418 -1206.6814,701.21418"
       id="text3228" />
    <path
       style="font-size:36px;font-style:normal;font-variant:normal;font-weight:normal;font-stretch:normal;fill:#000000;fill-opacity:1;stroke:none;stroke-width:1px;stroke-linecap:butt;stroke-linejoin:miter;stroke-opacity:1;font-family:Trajan Pro;-inkscape-font-specification:Trajan Pro"
       d="M -1284.1376,857.41648 C -1284.7136,857.41648 -1284.8576,857.45248 -1284.9296,857.70448 L -1285.4696,859.72048 C -1285.5416,860.04448 -1285.5056,860.26048 -1285.2896,860.26048 C -1285.1096,860.26048 -1284.4976,859.90048 -1283.8136,859.72048 C -1282.5896,859.39648 -1276.2176,858.53248 -1275.2456,858.38848 C -1274.6696,858.28048 -1273.9856,858.20848 -1273.9856,857.77648 C -1273.9856,857.48848 -1274.4536,857.41648 -1275.0656,857.41648 L -1284.1376,857.41648 M -1257.7271,846.97648 C -1257.7271,844.99648 -1257.6911,842.11648 -1257.6911,841.57648 C -1257.6911,841.21648 -1257.7991,840.96448 -1258.0511,840.96448 C -1258.3031,840.96448 -1258.5191,841.21648 -1258.8071,841.61248 C -1259.9591,843.19648 -1271.6591,859.03648 -1271.8751,859.28848 C -1272.0191,859.46848 -1272.1991,859.75648 -1272.1991,860.04448 C -1272.1991,860.36848 -1271.8751,860.47648 -1271.4431,860.47648 L -1260.4631,860.47648 C -1260.4631,861.66448 -1260.3911,864.43648 -1260.5351,866.02048 C -1260.6431,867.10048 -1260.8951,867.85648 -1262.0831,868.03648 C -1262.6591,868.10848 -1263.4511,868.14448 -1263.7751,868.14448 C -1263.9551,868.14448 -1264.0631,868.28848 -1264.0631,868.43248 C -1264.0631,868.61248 -1263.8831,868.68448 -1263.4871,868.68448 C -1261.5071,868.68448 -1259.5631,868.57648 -1259.3111,868.57648 C -1259.0591,868.57648 -1256.7551,868.68448 -1254.7751,868.68448 C -1254.3791,868.68448 -1254.1991,868.61248 -1254.1991,868.43248 C -1254.1991,868.28848 -1254.3431,868.14448 -1254.5231,868.14448 C -1254.8831,868.14448 -1255.6031,868.10848 -1256.1071,868.00048 C -1257.2591,867.71248 -1257.5471,867.10048 -1257.6551,866.02048 C -1257.7991,864.43648 -1257.7271,861.66448 -1257.7271,860.47648 L -1254.4151,860.47648 C -1253.9831,860.47648 -1253.8391,860.36848 -1253.6591,860.00848 C -1253.5151,859.57648 -1253.3351,858.74848 -1253.3351,858.56848 C -1253.3351,858.38848 -1253.3351,858.13648 -1253.5151,858.13648 C -1253.6591,858.13648 -1254.0191,858.53248 -1254.9911,858.53248 L -1257.7271,858.53248 L -1257.7271,846.97648 M -1260.4631,858.53248 L -1269.6791,858.53248 C -1268.9951,857.63248 -1261.0751,846.72448 -1260.5351,845.78848 L -1260.4631,845.78848 L -1260.4631,858.53248 M -1250.6599,855.90448 C -1250.6599,862.34847 -1247.8159,869.18848 -1242.1999,869.18848 C -1236.3319,869.18848 -1233.1279,862.52847 -1233.1279,854.24848 C -1233.1279,849.53248 -1235.0359,840.96448 -1241.6239,840.96448 C -1247.3839,840.96448 -1250.6599,847.40849 -1250.6599,855.90448 M -1247.7439,854.42848 C -1247.7439,847.12048 -1245.6919,842.29648 -1242.3439,842.29648 C -1238.2759,842.29648 -1236.0439,848.95648 -1236.0439,855.79648 C -1236.0439,862.88847 -1238.2399,867.85648 -1241.4799,867.85648 C -1245.9079,867.85648 -1247.7439,860.72847 -1247.7439,854.42848 M -1230.1286,855.90448 C -1230.1286,862.34847 -1227.2846,869.18848 -1221.6686,869.18848 C -1215.8006,869.18848 -1212.5966,862.52847 -1212.5966,854.24848 C -1212.5966,849.53248 -1214.5046,840.96448 -1221.0926,840.96448 C -1226.8526,840.96448 -1230.1286,847.40849 -1230.1286,855.90448 M -1227.2126,854.42848 C -1227.2126,847.12048 -1225.1606,842.29648 -1221.8126,842.29648 C -1217.7446,842.29648 -1215.5126,848.95648 -1215.5126,855.79648 C -1215.5126,862.88847 -1217.7086,867.85648 -1220.9486,867.85648 C -1225.3766,867.85648 -1227.2126,860.72847 -1227.2126,854.42848 M -1209.5974,855.90448 C -1209.5974,862.34847 -1206.7534,869.18848 -1201.1374,869.18848 C -1195.2694,869.18848 -1192.0654,862.52847 -1192.0654,854.24848 C -1192.0654,849.53248 -1193.9734,840.96448 -1200.5614,840.96448 C -1206.3214,840.96448 -1209.5974,847.40849 -1209.5974,855.90448 M -1206.6814,854.42848 C -1206.6814,847.12048 -1204.6294,842.29648 -1201.2814,842.29648 C -1197.2134,842.29648 -1194.9814,848.95648 -1194.9814,855.79648 C -1194.9814,862.88847 -1197.1774,867.85648 -1200.4174,867.85648 C -1204.8454,867.85648 -1206.6814,860.72847 -1206.6814,854.42848"
       id="text3232" />
    <path
       style="font-size:36px;font-style:normal;font-variant:normal;font-weight:normal;font-stretch:normal;fill:#000000;fill-opacity:1;stroke:none;stroke-width:1px;stroke-linecap:butt;stroke-linejoin:miter;stroke-opacity:1;font-family:Trajan Pro;-inkscape-font-specification:Trajan Pro"
       d="M -1284.1376,1010.6308 C -1284.7136,1010.6308 -1284.8576,1010.6668 -1284.9296,1010.9188 L -1285.4696,1012.9348 C -1285.5416,1013.2588 -1285.5056,1013.4748 -1285.2896,1013.4748 C -1285.1096,1013.4748 -1284.4976,1013.1148 -1283.8136,1012.9348 C -1282.5896,1012.6108 -1276.2176,1011.7468 -1275.2456,1011.6028 C -1274.6696,1011.4948 -1273.9856,1011.4228 -1273.9856,1010.9908 C -1273.9856,1010.7028 -1274.4536,1010.6308 -1275.0656,1010.6308 L -1284.1376,1010.6308 M -1256.6471,1014.7708 C -1256.6471,1018.7308 -1258.9151,1021.0348 -1261.7951,1021.0348 C -1265.9351,1021.0348 -1267.8071,1016.2468 -1267.8071,1012.0348 C -1267.8071,1003.5028 -1262.7311,997.70677 -1258.1231,995.15077 C -1257.7631,994.93477 -1257.4391,994.79077 -1257.4391,994.50277 C -1257.4391,994.28677 -1257.5831,994.17877 -1257.7271,994.17877 C -1257.8711,994.17877 -1258.1591,994.28677 -1258.4831,994.43077 C -1265.4671,997.45477 -1270.9391,1005.0508 -1270.9391,1012.0348 C -1270.9391,1018.5868 -1267.5191,1022.4028 -1262.4791,1022.4028 C -1259.8151,1022.4028 -1257.9431,1021.6108 -1256.2511,1019.9908 C -1254.6671,1018.4428 -1253.6591,1015.9948 -1253.6591,1013.1508 C -1253.6591,1009.9468 -1255.8911,1005.8428 -1260.8951,1005.8428 C -1262.9111,1005.8428 -1264.3511,1006.5988 -1265.0711,1007.1028 C -1265.2871,1007.2468 -1265.3951,1007.3548 -1265.3951,1007.5348 C -1265.3951,1007.7148 -1265.3591,1007.8228 -1265.2511,1007.8228 C -1265.1431,1007.8228 -1264.8911,1007.7148 -1264.7831,1007.6788 C -1263.9551,1007.2828 -1263.0191,1007.2108 -1262.0831,1007.2108 C -1259.8871,1007.2108 -1256.6471,1009.7668 -1256.6471,1014.7708 M -1250.6599,1009.1188 C -1250.6599,1015.5628 -1247.8159,1022.4028 -1242.1999,1022.4028 C -1236.3319,1022.4028 -1233.1279,1015.7428 -1233.1279,1007.4628 C -1233.1279,1002.7468 -1235.0359,994.17877 -1241.6239,994.17877 C -1247.3839,994.17877 -1250.6599,1000.6228 -1250.6599,1009.1188 M -1247.7439,1007.6428 C -1247.7439,1000.3348 -1245.6919,995.51077 -1242.3439,995.51077 C -1238.2759,995.51077 -1236.0439,1002.1708 -1236.0439,1009.0108 C -1236.0439,1016.1028 -1238.2399,1021.0708 -1241.4799,1021.0708 C -1245.9079,1021.0708 -1247.7439,1013.9428 -1247.7439,1007.6428 M -1230.1286,1009.1188 C -1230.1286,1015.5628 -1227.2846,1022.4028 -1221.6686,1022.4028 C -1215.8006,1022.4028 -1212.5966,1015.7428 -1212.5966,1007.4628 C -1212.5966,1002.7468 -1214.5046,994.17877 -1221.0926,994.17877 C -1226.8526,994.17877 -1230.1286,1000.6228 -1230.1286,1009.1188 M -1227.2126,1007.6428 C -1227.2126,1000.3348 -1225.1606,995.51077 -1221.8126,995.51077 C -1217.7446,995.51077 -1215.5126,1002.1708 -1215.5126,1009.0108 C -1215.5126,1016.1028 -1217.7086,1021.0708 -1220.9486,1021.0708 C -1225.3766,1021.0708 -1227.2126,1013.9428 -1227.2126,1007.6428 M -1209.5974,1009.1188 C -1209.5974,1015.5628 -1206.7534,1022.4028 -1201.1374,1022.4028 C -1195.2694,1022.4028 -1192.0654,1015.7428 -1192.0654,1007.4628 C -1192.0654,1002.7468 -1193.9734,994.17877 -1200.5614,994.17877 C -1206.3214,994.17877 -1209.5974,1000.6228 -1209.5974,1009.1188 M -1206.6814,1007.6428 C -1206.6814,1000.3348 -1204.6294,995.51077 -1201.2814,995.51077 C -1197.2134,995.51077 -1194.9814,1002.1708 -1194.9814,1009.0108 C -1194.9814,1016.1028 -1197.1774,1021.0708 -1200.4174,1021.0708 C -1204.8454,1021.0708 -1206.6814,1013.9428 -1206.6814,1007.6428"
       id="text3236" />
    <path
       style="font-size:36px;font-style:normal;font-variant:normal;font-weight:normal;font-stretch:normal;fill:#000000;fill-opacity:1;stroke:none;stroke-width:1px;stroke-linecap:butt;stroke-linejoin:miter;stroke-opacity:1;font-family:Trajan Pro;-inkscape-font-specification:Trajan Pro"
       d="M -996.29541,1084.187 C -996.25941,1078.679 -996.11541,1075.115 -996.11541,1074.827 C -996.11541,1074.467 -996.22341,1074.071 -996.51141,1074.071 C -996.76341,1074.071 -997.05141,1074.287 -997.37541,1074.503 L -1004.3234,1079.147 C -1004.4674,1079.255 -1004.5754,1079.399 -1004.5754,1079.507 C -1004.5754,1079.651 -1004.4314,1079.831 -1004.3234,1079.831 C -1004.1794,1079.831 -1004.0714,1079.795 -1003.8914,1079.687 C -1002.9914,1079.255 -1000.4714,1077.959 -999.78741,1077.959 C -999.21141,1077.959 -999.13941,1078.355 -999.13941,1079.075 C -999.13941,1081.055 -999.13941,1082.603 -999.13941,1084.547 L -999.13941,1090.847 C -999.13941,1094.447 -999.13941,1097.543 -999.24741,1099.127 C -999.31941,1100.243 -999.57141,1100.783 -1000.7594,1100.999 C -1001.4434,1101.143 -1003.2074,1101.251 -1003.6394,1101.251 C -1003.7834,1101.251 -1003.9274,1101.395 -1003.9274,1101.539 C -1003.9274,1101.719 -1003.7114,1101.791 -1003.3154,1101.791 C -1001.0114,1101.791 -997.98741,1101.683 -997.80741,1101.683 C -997.62741,1101.683 -995.32341,1101.791 -992.62341,1101.791 C -992.19141,1101.791 -992.01141,1101.719 -992.01141,1101.539 C -992.01141,1101.395 -992.19141,1101.251 -992.33541,1101.251 C -992.65941,1101.251 -994.17141,1101.143 -994.71141,1101.035 C -995.86341,1100.783 -996.00741,1100.243 -996.15141,1099.127 C -996.33141,1097.543 -996.36741,1094.447 -996.33141,1090.847 L -996.29541,1084.187"
       id="text3248" />
    <path
       style="font-size:36px;font-style:normal;font-variant:normal;font-weight:normal;font-stretch:normal;fill:#000000;fill-opacity:1;stroke:none;stroke-width:1px;stroke-linecap:butt;stroke-linejoin:miter;stroke-opacity:1;font-family:Trajan Pro;-inkscape-font-specification:Trajan Pro"
       d="M -790.55867,1101.611 C -789.04668,1101.611 -788.50667,1101.503 -788.21867,1100.531 C -787.85868,1099.307 -787.13867,1096.499 -787.13867,1095.815 C -787.13867,1095.599 -787.17467,1095.275 -787.35467,1095.275 C -787.57067,1095.275 -787.67867,1095.419 -787.78667,1095.815 C -788.21867,1097.723 -789.37068,1099.019 -791.99867,1099.271 C -793.29467,1099.415 -797.54268,1099.451 -798.15467,1099.451 L -800.78267,1099.451 C -800.96267,1099.451 -801.03467,1099.343 -800.85467,1099.199 C -796.39068,1095.383 -788.32667,1088.723 -788.32667,1081.271 C -788.32667,1077.455 -791.02668,1073.999 -796.46267,1073.999 C -799.37867,1073.999 -801.46668,1074.647 -802.79867,1075.259 C -803.12267,1075.475 -803.15867,1075.583 -803.15867,1075.799 C -803.15867,1076.915 -802.97867,1079.903 -802.94267,1080.227 C -802.90667,1080.551 -802.79867,1080.695 -802.65467,1080.695 C -802.47467,1080.695 -802.33067,1080.479 -802.33067,1080.155 C -802.33067,1078.751 -801.93467,1077.491 -801.07067,1076.663 C -800.02668,1075.691 -798.94667,1075.295 -797.21867,1075.295 C -794.80668,1075.295 -791.49467,1076.807 -791.49467,1081.955 C -791.49467,1088.867 -796.85868,1093.835 -804.05867,1100.243 C -804.34667,1100.495 -804.70667,1100.819 -804.70667,1101.107 C -804.70667,1101.395 -804.45467,1101.611 -804.20267,1101.611 L -790.55867,1101.611"
       id="text3252" />
    <path
       style="font-size:36px;font-style:normal;font-variant:normal;font-weight:normal;font-stretch:normal;fill:#000000;fill-opacity:1;stroke:none;stroke-width:1px;stroke-linecap:butt;stroke-linejoin:miter;stroke-opacity:1;font-family:Trajan Pro;-inkscape-font-specification:Trajan Pro"
       d="M -584.58795,1089.713 C -584.58795,1093.997 -587.46795,1096.085 -591.10395,1096.085 C -594.88394,1096.085 -596.25195,1093.997 -596.50395,1091.225 C -596.53995,1090.829 -596.57595,1090.721 -596.75595,1090.721 C -596.93595,1090.721 -597.00795,1090.901 -597.04395,1091.261 C -597.15195,1092.053 -597.29595,1094.069 -597.29595,1095.761 C -597.29595,1096.193 -597.22395,1096.445 -596.71995,1096.769 C -595.96395,1097.201 -593.80395,1097.633 -592.32795,1097.633 C -585.91995,1097.633 -581.56395,1093.421 -581.56395,1088.381 C -581.56395,1084.205 -585.23595,1082.009 -587.50395,1081.469 L -587.50395,1081.289 C -586.38795,1080.785 -582.67995,1078.409 -582.67995,1074.809 C -582.67995,1073.009 -583.93995,1069.409 -589.80795,1069.409 C -592.50794,1069.409 -594.52395,1070.093 -595.63995,1070.633 C -596.07195,1070.921 -596.10795,1071.065 -596.10795,1071.389 C -596.10795,1072.217 -595.99995,1073.837 -595.85595,1074.989 C -595.81995,1075.313 -595.71195,1075.385 -595.60395,1075.385 C -595.49595,1075.385 -595.35195,1075.313 -595.35195,1074.953 C -595.35195,1072.181 -593.44394,1070.705 -590.81595,1070.705 C -586.56795,1070.705 -585.63195,1074.053 -585.63195,1075.565 C -585.63195,1079.777 -589.59195,1081.505 -591.35595,1081.829 C -591.82395,1081.901 -592.18395,1082.009 -592.18395,1082.261 C -592.18395,1082.513 -591.93195,1082.585 -591.24795,1082.729 C -588.90795,1083.197 -584.58795,1084.889 -584.58795,1089.713"
       id="text3256" />
    <path
       style="font-size:36px;font-style:normal;font-variant:normal;font-weight:normal;font-stretch:normal;fill:#000000;fill-opacity:1;stroke:none;stroke-width:1px;stroke-linecap:butt;stroke-linejoin:miter;stroke-opacity:1;font-family:Trajan Pro;-inkscape-font-specification:Trajan Pro"
       d="M -377.28529,1077.203 C -377.28529,1075.223 -377.24929,1072.343 -377.24929,1071.803 C -377.24929,1071.443 -377.35729,1071.191 -377.60929,1071.191 C -377.86129,1071.191 -378.07729,1071.443 -378.36529,1071.839 C -379.51729,1073.423 -391.21729,1089.263 -391.43329,1089.515 C -391.57729,1089.695 -391.75729,1089.983 -391.75729,1090.271 C -391.75729,1090.595 -391.43329,1090.703 -391.00129,1090.703 L -380.02129,1090.703 C -380.02129,1091.891 -379.94929,1094.663 -380.09329,1096.247 C -380.20129,1097.327 -380.45329,1098.083 -381.64129,1098.263 C -382.21729,1098.335 -383.00929,1098.371 -383.33329,1098.371 C -383.51329,1098.371 -383.62129,1098.515 -383.62129,1098.659 C -383.62129,1098.839 -383.44129,1098.911 -383.04529,1098.911 C -381.06529,1098.911 -379.12129,1098.803 -378.86929,1098.803 C -378.61729,1098.803 -376.31329,1098.911 -374.33329,1098.911 C -373.93729,1098.911 -373.75729,1098.839 -373.75729,1098.659 C -373.75729,1098.515 -373.90129,1098.371 -374.08129,1098.371 C -374.44129,1098.371 -375.16129,1098.335 -375.66529,1098.227 C -376.81729,1097.939 -377.10529,1097.327 -377.21329,1096.247 C -377.35729,1094.663 -377.28529,1091.891 -377.28529,1090.703 L -373.97329,1090.703 C -373.54129,1090.703 -373.39729,1090.595 -373.21729,1090.235 C -373.07329,1089.803 -372.89329,1088.975 -372.89329,1088.795 C -372.89329,1088.615 -372.89329,1088.363 -373.07329,1088.363 C -373.21729,1088.363 -373.57729,1088.759 -374.54929,1088.759 L -377.28529,1088.759 L -377.28529,1077.203 M -380.02129,1088.759 L -389.23729,1088.759 C -388.55329,1087.859 -380.63329,1076.951 -380.09329,1076.015 L -380.02129,1076.015 L -380.02129,1088.759"
       id="text3260" />
    <path
       style="font-size:36px;font-style:normal;font-variant:normal;font-weight:normal;font-stretch:normal;fill:#000000;fill-opacity:1;stroke:none;stroke-width:1px;stroke-linecap:butt;stroke-linejoin:miter;stroke-opacity:1;font-family:Trajan Pro;-inkscape-font-specification:Trajan Pro"
       d="M -184.3466,1071.983 L -177.5426,1071.983 C -174.6986,1071.983 -174.3746,1072.919 -174.3746,1074.287 C -174.3746,1074.539 -174.3026,1074.755 -174.1586,1074.755 C -174.0146,1074.755 -173.9066,1074.539 -173.8706,1074.359 C -173.5106,1071.731 -173.4026,1070.147 -173.4026,1069.823 C -173.4026,1069.535 -173.5106,1069.463 -173.6546,1069.463 C -173.7626,1069.463 -173.9786,1069.535 -174.4106,1069.571 C -174.8426,1069.643 -175.4906,1069.715 -176.4986,1069.715 L -184.9586,1069.715 C -185.3546,1069.715 -185.6066,1069.823 -185.6426,1070.183 L -186.4706,1079.363 C -186.5066,1079.759 -186.2546,1079.975 -185.5346,1080.011 C -182.7626,1080.155 -176.3906,1082.963 -176.3906,1088.759 C -176.3906,1093.727 -179.7026,1095.743 -182.7266,1095.743 C -185.3546,1095.743 -187.6586,1094.951 -187.6586,1091.099 C -187.6586,1090.667 -187.7306,1090.487 -187.9466,1090.487 C -188.0906,1090.487 -188.1986,1090.775 -188.2706,1091.135 C -188.4506,1092.287 -188.4146,1094.447 -188.4146,1095.671 C -188.4146,1096.031 -188.3426,1096.355 -187.7306,1096.679 C -186.8306,1097.183 -185.4986,1097.327 -184.4186,1097.327 C -177.14661,1097.327 -173.6186,1092.035 -173.6186,1087.391 C -173.6186,1080.983 -180.2786,1078.211 -184.8506,1077.527 L -184.3466,1071.983"
       id="text3264" />
    <path
       style="font-size:36px;font-style:normal;font-variant:normal;font-weight:normal;font-stretch:normal;fill:#000000;fill-opacity:1;stroke:none;stroke-width:1px;stroke-linecap:butt;stroke-linejoin:miter;stroke-opacity:1;font-family:Trajan Pro;-inkscape-font-specification:Trajan Pro"
       d="M 34.764109,1090.775 C 34.764109,1094.735 32.496106,1097.039 29.616109,1097.039 C 25.476113,1097.039 23.604109,1092.251 23.604109,1088.039 C 23.604109,1079.5071 28.680114,1073.711 33.288109,1071.155 C 33.648109,1070.939 33.972109,1070.795 33.972109,1070.507 C 33.972109,1070.291 33.828109,1070.183 33.684109,1070.183 C 33.540109,1070.183 33.252109,1070.291 32.928109,1070.435 C 25.944116,1073.459 20.472109,1081.0551 20.472109,1088.039 C 20.472109,1094.591 23.892114,1098.407 28.932109,1098.407 C 31.596106,1098.407 33.468111,1097.615 35.160109,1095.995 C 36.744107,1094.447 37.752109,1091.999 37.752109,1089.155 C 37.752109,1085.951 35.520104,1081.847 30.516109,1081.847 C 28.500111,1081.847 27.060108,1082.603 26.340109,1083.107 C 26.124109,1083.251 26.016109,1083.359 26.016109,1083.539 C 26.016109,1083.719 26.052109,1083.827 26.160109,1083.827 C 26.268109,1083.827 26.520109,1083.719 26.628109,1083.683 C 27.456108,1083.287 28.39211,1083.215 29.328109,1083.215 C 31.524107,1083.215 34.764109,1085.771 34.764109,1090.775"
       id="text3268" />
    <path
       style="font-size:36px;font-style:normal;font-variant:normal;font-weight:normal;font-stretch:normal;fill:#000000;fill-opacity:1;stroke:none;stroke-width:1px;stroke-linecap:butt;stroke-linejoin:miter;stroke-opacity:1;font-family:Trajan Pro;-inkscape-font-specification:Trajan Pro"
       d="M 231.0868,1070.255 C 228.74681,1070.255 227.8828,1069.895 227.6668,1069.895 C 227.4508,1069.895 227.3068,1070.039 227.3068,1070.399 C 227.3068,1070.759 226.7668,1074.971 226.7668,1076.123 C 226.7668,1076.519 226.8028,1076.699 226.9828,1076.699 C 227.1628,1076.699 227.2708,1076.519 227.3068,1076.195 C 227.4148,1075.187 227.9188,1074.035 228.6748,1073.423 C 229.5388,1072.703 230.97881,1072.523 232.0228,1072.523 L 240.8788,1072.523 C 235.44281,1081.955 231.5548,1091.567 230.1508,1096.283 C 230.0428,1096.607 229.9348,1097.147 229.9348,1097.507 C 229.9348,1097.759 230.0428,1097.867 230.2588,1097.867 C 230.9788,1097.867 233.7868,1096.391 233.7868,1095.671 C 233.7868,1095.275 233.7148,1095.023 233.7868,1094.411 C 234.3268,1089.731 240.26681,1075.619 243.1828,1071.299 C 243.3628,1071.011 243.3988,1070.759 243.3988,1070.615 C 243.3988,1070.399 243.2188,1070.255 242.7508,1070.255 L 231.0868,1070.255"
       id="text3272" />
    <path
       style="font-size:36px;font-style:normal;font-variant:normal;font-weight:normal;font-stretch:normal;fill:#000000;fill-opacity:1;stroke:none;stroke-width:1px;stroke-linecap:butt;stroke-linejoin:miter;stroke-opacity:1;font-family:Trajan Pro;-inkscape-font-specification:Trajan Pro"
       d="M 431.02751,1091.6931 C 431.02751,1096.0491 434.69951,1098.6771 439.19951,1098.6771 C 444.3475,1098.6771 447.76751,1094.9331 447.76751,1090.7571 C 447.76751,1086.3291 443.8795,1084.1331 441.50351,1082.9091 C 443.5195,1081.9011 446.65151,1079.7411 446.65151,1075.9611 C 446.65151,1072.4331 443.8075,1070.4531 440.06351,1070.4531 C 434.80751,1070.4531 432.39551,1074.1611 432.39551,1076.8971 C 432.39551,1080.1011 434.62751,1082.0091 437.43551,1083.6651 C 434.15951,1084.9611 431.02751,1087.6611 431.02751,1091.6931 M 439.48751,1097.3091 C 436.13951,1097.3091 433.79951,1094.5371 433.79951,1091.3331 C 433.79951,1087.7331 435.99551,1085.5371 438.65951,1084.2411 C 441.8995,1085.9331 444.99551,1087.6611 444.99551,1091.5851 C 444.99551,1094.7891 442.7995,1097.3091 439.48751,1097.3091 M 439.63151,1071.6771 C 442.4035,1071.6771 444.13151,1073.6571 444.13151,1076.3931 C 444.13151,1080.0651 441.68351,1081.5051 440.27951,1082.3331 C 437.32751,1080.7491 434.95151,1079.2371 434.95151,1076.2131 C 434.95151,1074.2331 436.39151,1071.6771 439.63151,1071.6771"
       id="text3276" />
    <path
       style="font-size:36px;font-style:normal;font-variant:normal;font-weight:normal;font-stretch:normal;fill:#000000;fill-opacity:1;stroke:none;stroke-width:1px;stroke-linecap:butt;stroke-linejoin:miter;stroke-opacity:1;font-family:Trajan Pro;-inkscape-font-specification:Trajan Pro"
       d="M 645.54824,1069.0309 C 640.58024,1069.0309 636.94424,1072.4509 636.94424,1077.4189 C 636.94424,1080.4429 639.10424,1084.3669 644.21624,1084.3669 C 645.65624,1084.3669 647.49224,1083.8269 648.53624,1082.7109 C 648.64424,1082.6029 648.68024,1082.5309 648.68024,1082.4229 C 648.68024,1082.3149 648.60824,1082.1709 648.50024,1082.1709 C 648.39224,1082.1709 648.24824,1082.2429 648.03224,1082.3869 C 647.56424,1082.6749 646.84424,1083.0349 645.15224,1083.0349 C 644.18024,1083.0349 639.75224,1081.8469 639.75224,1075.8709 C 639.75224,1073.0269 641.44424,1070.3629 644.68424,1070.3629 C 647.85223,1070.3629 650.62424,1073.567 650.62424,1079.8669 C 650.62424,1088.3269 645.08023,1094.3029 640.83224,1096.6429 C 640.61624,1096.7509 640.47224,1096.9309 640.47224,1097.1469 C 640.47224,1097.3629 640.61624,1097.5069 640.76024,1097.5069 C 640.90424,1097.5069 641.12024,1097.4709 641.33624,1097.3629 C 645.72823,1095.1669 653.79224,1088.9389 653.79224,1078.8229 C 653.79224,1073.3509 650.62423,1069.0309 645.54824,1069.0309"
       id="text3280" />
    <path
       style="font-size:36px;font-style:normal;font-variant:normal;font-weight:normal;font-stretch:normal;fill:#000000;fill-opacity:1;stroke:none;stroke-width:1px;stroke-linecap:butt;stroke-linejoin:miter;stroke-opacity:1;font-family:Trajan Pro;-inkscape-font-specification:Trajan Pro"
       d="M 835.1333,1081.3969 C 835.1693,1075.8889 835.3133,1072.3249 835.3133,1072.0369 C 835.3133,1071.6769 835.2053,1071.2809 834.9173,1071.2809 C 834.6653,1071.2809 834.3773,1071.4969 834.0533,1071.7129 L 827.1053,1076.3569 C 826.9613,1076.4649 826.8533,1076.6089 826.8533,1076.7169 C 826.8533,1076.8609 826.9973,1077.0409 827.1053,1077.0409 C 827.2493,1077.0409 827.3573,1077.0049 827.5373,1076.8969 C 828.4373,1076.4649 830.9573,1075.1689 831.6413,1075.1689 C 832.2173,1075.1689 832.2893,1075.5649 832.2893,1076.2849 C 832.2893,1078.2649 832.2893,1079.8129 832.2893,1081.7569 L 832.2893,1088.0569 C 832.2893,1091.6569 832.2893,1094.7529 832.1813,1096.3369 C 832.1093,1097.4529 831.8573,1097.9929 830.6693,1098.2089 C 829.9853,1098.3529 828.2213,1098.4609 827.7893,1098.4609 C 827.6453,1098.4609 827.5013,1098.6049 827.5013,1098.7489 C 827.5013,1098.9289 827.7173,1099.0009 828.1133,1099.0009 C 830.4173,1099.0009 833.4413,1098.8929 833.6213,1098.8929 C 833.8013,1098.8929 836.1053,1099.0009 838.8053,1099.0009 C 839.2373,1099.0009 839.4173,1098.9289 839.4173,1098.7489 C 839.4173,1098.6049 839.2373,1098.4609 839.0933,1098.4609 C 838.7693,1098.4609 837.2573,1098.3529 836.7173,1098.2449 C 835.5653,1097.9929 835.4213,1097.4529 835.2773,1096.3369 C 835.0973,1094.7529 835.0613,1091.6569 835.0973,1088.0569 L 835.1333,1081.3969 M 844.90055,1086.2209 C 844.90055,1092.6649 847.74456,1099.5049 853.36055,1099.5049 C 859.22854,1099.5049 862.43255,1092.8449 862.43255,1084.5649 C 862.43255,1079.8489 860.52454,1071.2809 853.93655,1071.2809 C 848.17656,1071.2809 844.90055,1077.725 844.90055,1086.2209 M 847.81655,1084.7449 C 847.81655,1077.437 849.86855,1072.6129 853.21655,1072.6129 C 857.28455,1072.6129 859.51655,1079.273 859.51655,1086.1129 C 859.51655,1093.2049 857.32055,1098.1729 854.08055,1098.1729 C 849.65255,1098.1729 847.81655,1091.0449 847.81655,1084.7449"
       id="text3284" />
    <path
       style="fill:url(#linearGradient3298);fill-opacity:1;stroke:#1c1c1d;stroke-width:0;stroke-linecap:round;stroke-linejoin:round;stroke-miterlimit:4;stroke-opacity:1"
       d="M -1165.7144,-141.92353 L -999.28579,-192.99496 L -798.5715,115.93361 L -597.8572,224.86218 L -185.71434,128.07647 L 214.99996,534.1479 L 429.99996,274.50504 L 636.42854,569.1479 L 1011.4286,843.79076 L 1011.4286,1043.7908 L 636.42854,769.14792 L 429.99996,474.50506 L 214.99996,734.14792 L -185.71434,328.07648 L -597.8572,424.86219 L -798.5715,315.93362 L -999.28579,7.0050441 L -1165.7144,58.076469 L -1165.7144,-141.92353 z"
       id="rect3288"
       sodipodi:nodetypes="ccccccccccccccccccc" />
  </g>
</svg>
